<?xml version="1.0" standalone="no"?>
<!DOCTYPE svg PUBLIC "-//W3C//DTD SVG 20010904//EN"
 "http://www.w3.org/TR/2001/REC-SVG-20010904/DTD/svg10.dtd">
<svg version="1.0" xmlns="http://www.w3.org/2000/svg"
 width="120.000000pt" height="135.000000pt" viewBox="0 0 120.000000 135.000000"
 preserveAspectRatio="xMidYMid meet">
<metadata>
Created by potrace 1.10, written by Peter Selinger 2001-2011
</metadata>
<g transform="translate(0.000000,135.000000) scale(0.100000,-0.100000)"
fill="#000000" stroke="none">
<path d="M600 1289 c0 -11 5 -17 10 -14 6 3 10 13 10 21 0 8 -4 14 -10 14 -5
0 -10 -9 -10 -21z"/>
<path d="M620 1270 c-7 -16 -10 -39 -7 -50 3 -12 1 -18 -5 -14 -6 4 -8 -1 -3
-15 4 -12 2 -21 -4 -21 -6 0 -11 7 -11 15 0 17 -9 19 -29 6 -23 -15 -5 -44 23
-37 l24 6 -2 -128 c0 -70 -2 -116 -4 -102 -5 48 -33 109 -58 124 -14 10 -24
26 -24 39 0 27 -36 35 -42 9 -7 -27 2 -42 26 -42 33 0 63 -38 77 -95 6 -27 15
-58 20 -67 5 -10 9 -70 9 -135 l0 -116 -23 22 c-20 18 -28 20 -50 12 -35 -13
-36 -34 -2 -25 18 4 32 1 45 -11 17 -15 20 -31 20 -97 0 -65 -3 -78 -16 -78
-13 0 -15 -7 -11 -36 4 -25 3 -34 -6 -30 -69 29 -126 38 -216 33 -117 -6 -165
-20 -204 -59 -27 -26 -28 -31 -15 -44 14 -14 23 -13 89 10 168 57 306 73 348
38 l22 -17 -24 -55 c-13 -30 -23 -59 -22 -65 6 -53 56 -87 100 -67 37 17 40
51 10 127 -19 46 -24 70 -17 77 6 6 40 9 79 6 52 -3 91 -14 167 -47 110 -47
141 -50 141 -11 0 32 -45 55 -151 76 -74 15 -187 14 -227 -2 -12 -4 -15 2 -14
28 1 18 -2 32 -8 31 -6 -1 -9 31 -7 85 3 78 6 90 29 114 15 15 42 31 60 34 42
8 53 24 16 24 -37 -1 -73 -21 -89 -51 -12 -22 -13 -17 -14 47 l0 72 41 16 c32
13 39 20 31 28 -9 9 -19 7 -41 -9 l-29 -22 0 72 c-1 76 17 123 62 159 l21 17
-24 -2 c-22 -1 -29 -11 -46 -62 -6 -18 -7 -18 -16 -3 -11 20 0 158 13 158 14
0 41 30 34 37 -3 4 -12 1 -18 -5 -20 -20 -24 -14 -22 31 5 70 5 73 11 60 8
-21 25 -14 21 9 -5 33 -24 32 -38 -2z m-10 -862 c0 -26 -4 -38 -8 -30 -8 12
-4 72 4 72 2 0 4 -19 4 -42z m-260 7 c0 -4 -61 -25 -165 -56 -29 -9 -29 -9
-10 11 11 11 45 24 74 30 30 6 57 12 59 15 7 6 42 7 42 0z m622 -61 c49 -26
12 -29 -45 -4 -26 12 -47 23 -47 25 0 9 62 -5 92 -21z m-338 -54 c20 -51 20
-89 0 -97 -24 -9 -64 14 -64 37 0 25 30 100 40 100 4 0 15 -18 24 -40z"/>
<path d="M710 1122 c0 -7 -7 -12 -15 -12 -8 0 -15 -7 -15 -16 0 -8 5 -12 10
-9 6 3 10 -1 10 -9 0 -21 13 -20 26 2 9 14 8 22 -2 37 -8 10 -14 13 -14 7z"/>
<path d="M542 1085 c6 -14 13 -23 16 -21 7 7 -9 46 -18 46 -5 0 -4 -11 2 -25z"/>
<path d="M670 1059 c0 -5 5 -7 10 -4 6 3 10 8 10 11 0 2 -4 4 -10 4 -5 0 -10
-5 -10 -11z"/>
<path d="M480 344 c-30 -14 -70 -37 -87 -50 -81 -62 -83 -164 -4 -164 35 0 50
17 96 110 20 41 49 87 63 103 23 24 24 27 6 27 -10 0 -44 -12 -74 -26z m-15
-97 c-31 -66 -58 -96 -82 -93 -60 9 -31 90 49 135 29 17 54 27 56 22 2 -5 -9
-33 -23 -64z"/>
</g>
</svg>
