<?xml version="1.0" standalone="no"?>
<!DOCTYPE svg PUBLIC "-//W3C//DTD SVG 20010904//EN"
 "http://www.w3.org/TR/2001/REC-SVG-20010904/DTD/svg10.dtd">
<svg version="1.0" xmlns="http://www.w3.org/2000/svg"
 width="120.000000pt" height="135.000000pt" viewBox="0 0 120.000000 135.000000"
 preserveAspectRatio="xMidYMid meet">
<metadata>
Created by potrace 1.10, written by Peter Selinger 2001-2011
</metadata>
<g transform="translate(0.000000,135.000000) scale(0.100000,-0.100000)"
fill="#000000" stroke="none">
<path d="M190 1077 c0 -7 6 -19 13 -26 18 -20 -53 -8 -86 14 -35 23 -35 3 1
-25 25 -20 25 -21 4 -15 -29 8 -72 -2 -72 -16 0 -6 9 -13 20 -16 11 -3 20 -12
20 -21 0 -16 -39 -73 -72 -105 -23 -23 -23 -30 2 -52 12 -11 26 -15 37 -10 10
4 49 7 87 7 64 -1 72 -3 102 -33 18 -18 40 -46 48 -64 8 -17 24 -39 35 -49 10
-9 22 -33 25 -52 8 -38 25 -50 83 -60 l39 -6 -1 -86 c-1 -80 -17 -142 -36
-142 -4 0 -9 -7 -13 -15 -4 -11 2 -15 25 -15 22 0 32 5 36 20 3 11 9 20 14 20
5 0 9 13 9 29 0 50 12 94 21 79 16 -25 10 -85 -12 -112 -17 -22 -18 -27 -5
-32 25 -10 51 0 55 21 2 11 7 23 12 26 5 3 5 28 -1 60 -11 61 -8 165 6 179 5
5 68 7 147 3 l137 -6 32 -33 c18 -18 43 -36 56 -39 21 -5 23 -10 18 -38 -8
-39 -82 -166 -102 -174 -22 -8 -16 -23 10 -23 22 0 76 40 76 57 0 4 22 41 49
81 42 63 50 70 56 53 13 -43 -6 -132 -36 -166 -37 -42 -36 -49 3 -41 46 9 68
37 68 88 0 50 14 81 22 50 3 -10 1 -27 -4 -36 -6 -10 -5 -16 2 -16 5 0 10 5
10 11 0 5 4 8 9 5 11 -7 20 64 26 199 2 55 11 147 19 203 9 62 11 113 6 125
-14 39 -53 64 -126 82 -61 16 -80 17 -129 7 -73 -15 -195 -15 -305 -1 -47 6
-144 12 -217 13 -127 1 -132 2 -155 26 -12 14 -24 29 -25 33 -6 17 -28 47 -35
47 -5 0 -8 -6 -8 -13z m124 -113 c54 -14 132 -14 154 0 5 3 35 -1 68 -9 95
-23 316 -30 399 -12 64 13 74 13 135 -4 81 -23 113 -56 104 -109 -4 -19 -14
-44 -23 -55 -31 -37 -53 -99 -59 -162 -4 -58 -3 -64 24 -91 16 -16 28 -34 28
-40 -1 -7 -2 -16 -3 -21 -1 -13 -30 -41 -42 -41 -5 0 -9 8 -9 18 0 10 -7 28
-16 41 l-16 23 -29 -28 -29 -28 0 26 c0 17 -10 34 -27 48 -16 11 -44 35 -63
52 l-35 31 -144 3 c-177 5 -181 3 -181 -94 0 -50 -3 -63 -14 -59 -7 3 -19 0
-25 -6 -8 -8 -11 3 -11 44 0 65 -14 83 -73 93 -29 5 -40 13 -47 34 -6 15 -13
32 -17 38 -5 6 -24 36 -44 65 -19 30 -53 69 -74 88 l-39 34 -88 -5 c-48 -3
-88 -4 -88 -1 0 2 19 30 41 63 27 38 40 65 37 78 -4 16 2 22 31 31 64 19 75
18 96 -6 12 -15 43 -30 79 -39z m836 -321 c-7 -65 -13 -120 -16 -122 -2 -2 -8
9 -14 25 -13 33 -4 116 16 156 8 15 14 37 14 49 0 12 3 20 6 17 3 -4 0 -59 -6
-125z"/>
</g>
</svg>
