<?xml version="1.0" standalone="no"?>
<!DOCTYPE svg PUBLIC "-//W3C//DTD SVG 20010904//EN"
 "http://www.w3.org/TR/2001/REC-SVG-20010904/DTD/svg10.dtd">
<svg version="1.0" xmlns="http://www.w3.org/2000/svg"
 width="120.000000pt" height="135.000000pt" viewBox="0 0 120.000000 135.000000"
 preserveAspectRatio="xMidYMid meet">
<metadata>
Created by potrace 1.10, written by Peter Selinger 2001-2011
</metadata>
<g transform="translate(0.000000,135.000000) scale(0.100000,-0.100000)"
fill="#000000" stroke="none">
<path d="M762 1245 c-60 -18 -118 -61 -151 -109 -75 -111 -85 -226 -32 -391
41 -130 56 -217 47 -280 -6 -40 -16 -58 -49 -91 -87 -86 -205 -80 -311 17 -31
28 -72 79 -90 113 -43 78 -99 228 -122 331 -13 58 -20 72 -22 52 -9 -72 72
-451 115 -544 37 -77 106 -137 188 -162 225 -70 437 56 461 274 7 68 -12 186
-52 325 -43 150 -33 273 27 326 54 48 166 58 284 24 90 -26 115 -26 115 -1 0
38 -57 74 -174 110 -78 24 -169 26 -234 6z m198 -21 c82 -14 218 -84 164 -84
-11 0 -41 7 -69 16 -57 18 -197 21 -236 6 -120 -47 -157 -187 -101 -377 79
-264 68 -424 -35 -515 -72 -63 -133 -85 -233 -82 -86 3 -121 11 -166 37 -76
45 -120 112 -154 239 -30 113 -25 126 18 43 90 -173 249 -257 377 -198 88 40
125 100 125 203 -1 73 -9 116 -52 251 -26 85 -30 110 -26 180 5 97 37 167 103
224 78 67 147 81 285 57z"/>
</g>
</svg>
