<?xml version="1.0" standalone="no"?>
<!DOCTYPE svg PUBLIC "-//W3C//DTD SVG 20010904//EN"
 "http://www.w3.org/TR/2001/REC-SVG-20010904/DTD/svg10.dtd">
<svg version="1.0" xmlns="http://www.w3.org/2000/svg"
 width="120.000000pt" height="135.000000pt" viewBox="0 0 120.000000 135.000000"
 preserveAspectRatio="xMidYMid meet">
<metadata>
Created by potrace 1.10, written by Peter Selinger 2001-2011
</metadata>
<g transform="translate(0.000000,135.000000) scale(0.100000,-0.100000)"
fill="#000000" stroke="none">
<path d="M200 1303 c-29 -10 -88 -75 -84 -91 3 -12 -12 -28 -46 -50 -48 -31
-51 -35 -45 -65 13 -61 28 -78 84 -98 29 -10 65 -26 79 -35 24 -16 24 -19 19
-88 -7 -83 8 -250 28 -320 8 -27 15 -88 15 -135 0 -95 -18 -146 -60 -168 -27
-13 -44 -39 -32 -47 5 -3 26 -8 48 -11 59 -10 76 15 113 164 17 68 31 134 31
147 0 28 0 28 44 8 48 -23 66 -87 56 -207 -6 -79 -10 -91 -40 -129 -32 -39
-32 -42 -15 -54 24 -17 89 -18 103 -1 18 22 40 130 53 265 l13 133 54 15 c30
9 76 26 103 38 l49 21 70 -65 c62 -57 70 -69 70 -101 0 -20 -7 -42 -15 -49
-20 -17 -19 -27 6 -40 16 -9 26 -8 45 5 25 16 25 19 18 96 l-7 79 54 -36 c30
-20 62 -43 71 -51 20 -18 24 -73 7 -105 -8 -14 -8 -23 0 -31 14 -14 71 -13 80
2 9 14 -5 115 -19 142 -6 10 -10 29 -10 43 0 14 -4 27 -9 31 -31 19 -80 156
-81 227 0 3 -15 26 -33 50 -42 55 -51 88 -37 140 15 54 16 153 1 204 -20 75
-96 164 -138 164 -20 0 -15 -17 21 -73 19 -28 40 -72 46 -96 15 -56 5 -137
-21 -180 l-20 -33 -112 4 c-102 4 -117 7 -170 36 -31 17 -68 43 -81 58 -22 26
-22 29 -8 55 14 23 14 33 3 70 -16 56 -101 139 -159 157 -42 12 -114 15 -142
5z m121 -28 c44 -7 111 -55 138 -99 22 -35 27 -86 11 -115 -16 -31 32 -87 110
-126 65 -33 74 -34 181 -36 111 -1 114 -1 136 25 12 15 27 45 33 68 11 40 11
158 0 168 -3 3 -16 25 -29 50 -32 60 -1 35 37 -29 28 -47 32 -102 21 -283 -3
-57 -1 -70 17 -90 33 -35 54 -82 60 -135 6 -44 22 -84 66 -168 21 -40 36 -91
44 -148 6 -44 5 -47 -15 -47 -19 0 -21 4 -15 23 3 12 10 23 15 25 9 4 -10 59
-31 89 -9 11 -42 37 -74 56 -50 30 -61 33 -72 22 -8 -7 -14 -26 -14 -41 l0
-28 -23 30 c-12 17 -40 46 -62 65 -22 19 -46 40 -53 47 -7 6 -21 12 -30 12
-18 0 -211 -66 -220 -75 -3 -2 -16 -78 -28 -167 -30 -205 -32 -216 -54 -228
-16 -9 -50 -5 -50 6 0 2 11 19 23 38 19 27 25 53 30 129 8 116 -8 175 -57 212
-62 47 -77 34 -101 -83 -9 -46 -26 -113 -38 -150 -20 -60 -25 -67 -51 -70
l-29 -4 27 33 c16 18 32 44 38 58 15 40 10 200 -7 256 -10 32 -18 112 -22 223
l-6 173 -29 24 c-16 14 -35 25 -41 25 -7 0 -31 8 -54 17 -35 15 -43 23 -48 52
-6 32 -3 37 39 73 25 22 46 47 46 57 0 21 47 67 75 73 20 5 39 4 106 -7z m610
-908 c-10 -9 -11 -8 -5 6 3 10 9 15 12 12 3 -3 0 -11 -7 -18z"/>
</g>
</svg>
