<?xml version="1.0" standalone="no"?>
<!DOCTYPE svg PUBLIC "-//W3C//DTD SVG 20010904//EN"
 "http://www.w3.org/TR/2001/REC-SVG-20010904/DTD/svg10.dtd">
<svg version="1.0" xmlns="http://www.w3.org/2000/svg"
 width="120.000000pt" height="135.000000pt" viewBox="0 0 120.000000 135.000000"
 preserveAspectRatio="xMidYMid meet">
<metadata>
Created by potrace 1.10, written by Peter Selinger 2001-2011
</metadata>
<g transform="translate(0.000000,135.000000) scale(0.100000,-0.100000)"
fill="#000000" stroke="none">
<path d="M685 848 c-43 -18 -72 -21 -210 -23 -122 -1 -185 -7 -265 -24 -105
-22 -200 -56 -200 -72 0 -23 27 -62 54 -78 51 -32 264 -90 356 -97 47 -4 98
-13 113 -21 37 -18 57 -11 57 22 0 36 38 33 76 -6 45 -47 59 -52 96 -33 53 27
118 85 118 105 0 32 64 13 190 -56 77 -43 104 -43 108 0 2 23 -4 37 -28 60
-16 16 -30 33 -30 38 0 5 18 29 40 53 43 47 45 51 31 74 -14 21 -68 16 -141
-15 -59 -25 -72 -27 -147 -21 -109 8 -109 8 -109 64 1 45 0 47 -29 49 -16 2
-52 -7 -80 -19z m89 -6 c3 -5 3 -25 -1 -45 -6 -37 -6 -37 -54 -37 -26 0 -50 3
-52 8 -3 4 -110 4 -239 1 -128 -3 -237 -2 -241 2 -14 11 213 22 343 17 97 -4
117 -3 116 9 -1 9 19 22 49 32 60 22 72 24 79 13z m386 -72 c12 -8 8 -16 -23
-48 -20 -21 -37 -45 -37 -54 0 -8 14 -32 30 -53 50 -63 24 -68 -74 -16 -80 43
-95 61 -74 87 4 6 5 19 2 28 -4 9 -3 16 2 15 15 -4 68 14 99 33 33 20 53 22
75 8z m-965 -40 c9 -16 23 -30 33 -30 9 0 23 -9 30 -20 11 -17 23 -20 94 -20
74 0 80 -1 62 -14 -18 -14 -18 -16 -1 -33 13 -13 35 -18 85 -20 37 -1 69 -5
72 -10 6 -10 -31 -11 -155 -2 -161 12 -375 89 -375 134 0 8 10 17 21 20 20 7
31 -1 43 -30 7 -18 41 12 39 34 -4 33 33 27 52 -9z m-68 -6 c-9 -9 -28 6 -21
18 4 6 10 6 17 -1 6 -6 8 -13 4 -17z m726 1 c70 -10 127 -22 127 -27 0 -5 -8
-7 -17 -4 -70 19 -233 30 -475 30 -189 1 -278 4 -278 12 0 18 493 10 643 -11z
m-23 -47 c58 -6 112 -15 120 -20 10 -6 -3 -7 -35 -3 -143 17 -273 26 -300 21
-39 -8 -345 5 -345 15 0 10 435 1 560 -13z m5 -33 c-35 -13 -346 -34 -385 -26
-41 8 -36 9 50 11 52 1 118 5 145 10 50 7 209 12 190 5z m-20 -35 c-7 -12 -32
-13 -39 -2 -2 4 7 9 20 10 15 1 22 -2 19 -8z m-125 -8 c0 -13 -12 -22 -22 -16
-10 6 -1 24 13 24 5 0 9 -4 9 -8z m153 -3 c-14 -14 -79 -29 -123 -28 -23 1
-11 6 39 15 40 7 76 16 79 19 3 3 8 5 11 5 3 0 0 -5 -6 -11z m-283 -55 c0 -2
-7 -4 -15 -4 -8 0 -15 4 -15 10 0 5 7 7 15 4 8 -4 15 -8 15 -10z m206 1 c-23
-17 -42 -19 -51 -6 -3 5 9 12 27 14 18 2 35 4 38 5 3 1 -4 -5 -14 -13z"/>
</g>
</svg>
