<?xml version="1.0" standalone="no"?>
<!DOCTYPE svg PUBLIC "-//W3C//DTD SVG 20010904//EN"
 "http://www.w3.org/TR/2001/REC-SVG-20010904/DTD/svg10.dtd">
<svg version="1.0" xmlns="http://www.w3.org/2000/svg"
 width="120.000000pt" height="135.000000pt" viewBox="0 0 120.000000 135.000000"
 preserveAspectRatio="xMidYMid meet">
<metadata>
Created by potrace 1.10, written by Peter Selinger 2001-2011
</metadata>
<g transform="translate(0.000000,135.000000) scale(0.100000,-0.100000)"
fill="#000000" stroke="none">
<path d="M267 1213 c-3 -5 8 -23 25 -39 49 -46 96 -126 103 -178 4 -26 17 -59
30 -74 12 -15 25 -41 28 -58 5 -29 2 -34 -41 -65 -54 -39 -80 -39 -129 -2 -18
14 -37 23 -42 21 -13 -4 67 -71 85 -71 8 0 14 -1 14 -2 0 -1 -28 -24 -62 -51
-143 -112 -268 -247 -268 -290 0 -11 11 0 29 27 34 53 149 158 324 297 111 88
131 100 143 88 8 -8 14 -25 14 -39 0 -46 -40 -183 -75 -253 -40 -82 -134 -189
-196 -223 l-44 -24 31 34 c16 19 58 65 93 103 34 37 60 70 58 73 -4 4 -31 -23
-167 -170 -43 -46 -59 -57 -84 -57 -45 0 -76 11 -76 26 0 7 37 46 82 86 174
155 181 164 175 204 -6 33 -2 40 39 83 l46 46 -6 -39 c-7 -52 -58 -134 -131
-212 -33 -35 -57 -64 -54 -64 4 0 38 33 76 73 78 85 122 158 128 216 3 31 14
52 44 83 22 24 38 44 36 47 -3 2 -69 -58 -147 -134 -78 -76 -182 -169 -229
-206 -48 -38 -89 -76 -93 -85 -3 -8 -10 -12 -16 -9 -16 10 -12 -33 6 -71 20
-42 59 -64 112 -64 56 0 166 58 230 121 28 29 52 50 52 47 0 -12 -52 -135 -70
-165 -12 -20 -19 -37 -17 -40 7 -7 64 70 72 97 4 14 16 41 26 60 10 19 23 53
28 75 6 22 18 50 28 62 l17 21 28 -21 c39 -29 118 -28 159 2 39 29 37 11 -3
-32 -30 -31 -38 -34 -82 -32 -43 2 -53 7 -77 36 -35 42 -40 19 -9 -41 52 -102
141 -92 190 22 l23 53 18 -40 c10 -22 19 -50 19 -61 0 -12 6 -27 13 -33 8 -6
19 -28 25 -48 11 -38 71 -128 79 -120 2 3 -5 20 -17 40 -18 30 -70 153 -70
165 0 3 24 -18 53 -47 68 -68 173 -121 238 -121 39 0 52 5 77 30 51 50 53 118
7 190 -28 43 -157 168 -242 234 -64 50 -73 59 -50 51 6 -2 32 14 56 35 48 44
39 55 -12 16 -48 -36 -76 -35 -129 3 -43 31 -46 37 -41 65 3 17 16 41 28 53
15 14 25 40 30 75 8 59 39 114 98 175 22 24 37 46 33 50 -5 5 -37 -23 -72 -62
-49 -52 -68 -83 -81 -125 -9 -30 -21 -61 -26 -67 -17 -24 -25 -13 -20 25 4 33
1 42 -24 63 l-30 25 23 28 c25 28 31 46 15 46 -5 0 -18 -15 -28 -32 -19 -33
-20 -33 -93 -32 -71 1 -75 2 -90 29 -16 29 -40 45 -40 26 0 -5 10 -22 23 -37
l23 -26 -29 -29 c-25 -25 -28 -35 -23 -64 7 -35 -3 -46 -21 -22 -5 6 -17 37
-26 69 -13 43 -32 72 -80 124 -36 38 -66 63 -70 57z m389 -178 c9 -19 27 -41
40 -50 13 -8 24 -22 24 -30 0 -19 -61 -35 -132 -35 -99 0 -137 30 -84 66 14 8
34 30 44 48 16 26 25 32 55 33 32 1 39 -3 53 -32z m-136 1 c0 -2 -7 -9 -15
-16 -13 -11 -14 -10 -9 4 5 14 24 23 24 12z m185 -7 c11 -17 -1 -21 -15 -4 -8
9 -8 15 -2 15 6 0 14 -5 17 -11z m-110 -129 c44 0 90 6 111 15 34 14 35 14 30
-5 -3 -11 -8 -29 -12 -39 -3 -11 -14 -23 -25 -26 -10 -4 -24 -16 -30 -27 -14
-26 -6 -117 15 -177 9 -24 16 -47 16 -52 0 -5 -45 -9 -100 -9 -55 0 -100 3
-100 8 0 4 9 36 20 70 27 86 26 145 -2 172 -12 11 -25 20 -29 20 -4 0 -9 10
-12 23 -2 12 -8 30 -12 41 -8 17 -6 17 23 2 20 -11 57 -16 107 -16z m252 -182
c76 -61 170 -140 210 -175 70 -63 139 -150 127 -162 -3 -3 -10 2 -15 11 -6 10
-45 44 -87 76 -42 33 -143 123 -223 201 -144 138 -202 185 -120 96 28 -31 41
-54 41 -73 0 -48 58 -147 132 -227 38 -41 74 -75 79 -75 5 0 -7 14 -26 32 -82
71 -190 247 -167 270 15 15 92 -76 85 -101 -11 -43 9 -71 122 -171 157 -138
166 -160 64 -160 -43 0 -50 4 -82 42 -53 63 -184 198 -156 161 13 -18 53 -64
88 -102 62 -70 69 -87 21 -55 -44 30 -101 87 -146 147 -70 94 -135 324 -103
361 8 8 15 15 16 16 1 0 64 -50 140 -112z m-544 -150 c6 -23 6 -24 -192 -210
l-71 -67 -16 30 c-19 38 -18 39 101 135 50 39 105 88 124 108 37 38 45 39 54
4z m648 -4 c18 -20 75 -69 124 -108 120 -96 120 -97 100 -136 l-16 -31 -42 43
c-23 24 -77 74 -120 112 -91 79 -111 107 -102 136 9 28 16 26 56 -16z m-251
-19 c0 -23 -34 -35 -100 -35 -66 0 -100 12 -100 35 0 12 19 15 100 15 81 0
100 -3 100 -15z m-65 -145 c-3 -5 -19 -10 -35 -10 -16 0 -32 5 -35 10 -4 6 10
10 35 10 25 0 39 -4 35 -10z"/>
</g>
</svg>
