<?xml version="1.0" standalone="no"?>
<!DOCTYPE svg PUBLIC "-//W3C//DTD SVG 20010904//EN"
 "http://www.w3.org/TR/2001/REC-SVG-20010904/DTD/svg10.dtd">
<svg version="1.0" xmlns="http://www.w3.org/2000/svg"
 width="120.000000pt" height="135.000000pt" viewBox="0 0 120.000000 135.000000"
 preserveAspectRatio="xMidYMid meet">
<metadata>
Created by potrace 1.10, written by Peter Selinger 2001-2011
</metadata>
<g transform="translate(0.000000,135.000000) scale(0.100000,-0.100000)"
fill="#000000" stroke="none">
<path d="M342 1293 c-18 -9 -44 -35 -57 -58 -37 -63 -124 -297 -134 -362 -5
-32 -19 -83 -30 -114 -29 -81 -41 -164 -47 -344 -5 -149 -4 -162 15 -192 29
-47 93 -76 151 -71 90 9 140 69 140 168 0 32 4 49 10 45 6 -3 10 -17 10 -30 0
-60 81 -110 230 -142 101 -21 378 -25 447 -5 125 36 162 176 66 249 -36 27
-39 28 -172 28 -75 0 -141 3 -148 8 -18 12 -223 47 -276 47 -62 0 -120 -29
-137 -70 -7 -17 -14 -29 -16 -27 -2 2 3 55 11 117 8 63 15 135 15 161 0 29 8
61 19 81 33 56 103 298 108 373 5 62 3 73 -18 99 -42 54 -123 71 -187 39z
m116 -27 c53 -27 65 -50 59 -108 -6 -60 -91 -341 -113 -375 -9 -15 -14 -50
-14 -106 0 -46 -4 -107 -10 -135 -5 -29 -14 -102 -21 -164 -12 -123 -24 -156
-68 -187 -58 -41 -147 -15 -175 52 -22 54 -28 155 -16 292 11 132 33 211 72
261 14 17 21 39 20 59 -2 32 70 257 110 341 34 73 96 101 156 70z m239 -792
c84 -17 178 -29 275 -33 137 -6 148 -8 172 -30 55 -52 37 -145 -35 -183 -42
-22 -200 -39 -309 -34 -90 5 -235 39 -308 73 -57 27 -82 61 -82 112 0 62 32
98 100 112 53 10 50 11 187 -17z"/>
<path d="M633 1291 c-18 -11 -39 -32 -49 -46 -50 -77 26 -445 132 -631 68
-120 79 -128 172 -132 78 -4 79 -4 105 28 45 52 38 109 -33 300 -17 46 -54
161 -81 255 -43 144 -56 175 -84 204 -43 44 -112 53 -162 22z m142 -35 c24
-26 35 -50 44 -98 7 -34 48 -170 92 -300 43 -130 79 -253 79 -273 0 -69 -83
-115 -148 -81 -67 35 -145 169 -197 340 -77 256 -78 397 -2 431 57 24 96 19
132 -19z"/>
</g>
</svg>
