<?xml version="1.0" standalone="no"?>
<!DOCTYPE svg PUBLIC "-//W3C//DTD SVG 20010904//EN"
 "http://www.w3.org/TR/2001/REC-SVG-20010904/DTD/svg10.dtd">
<svg version="1.0" xmlns="http://www.w3.org/2000/svg"
 width="120.000000pt" height="135.000000pt" viewBox="0 0 120.000000 135.000000"
 preserveAspectRatio="xMidYMid meet">
<metadata>
Created by potrace 1.10, written by Peter Selinger 2001-2011
</metadata>
<g transform="translate(0.000000,135.000000) scale(0.100000,-0.100000)"
fill="#000000" stroke="none">
<path d="M963 1282 c-3 -12 -3 -25 -1 -28 3 -2 -15 -25 -39 -52 -24 -26 -55
-71 -68 -99 -14 -29 -36 -77 -50 -107 -22 -47 -32 -56 -78 -76 -45 -20 -68
-23 -167 -22 -180 1 -245 10 -288 40 -20 14 -50 27 -67 28 -16 2 -45 6 -63 10
-25 5 -32 3 -32 -10 0 -9 -4 -16 -9 -16 -12 0 -12 -48 1 -88 6 -20 23 -41 42
-53 21 -13 25 -19 14 -19 -27 0 -22 -16 17 -59 30 -33 33 -40 19 -45 -15 -6
-15 -8 1 -26 10 -11 37 -31 61 -45 39 -23 42 -28 32 -45 -24 -38 36 -118 134
-178 62 -38 64 -40 95 -123 18 -46 32 -89 33 -96 0 -13 -29 -26 -77 -33 -10
-2 11 -6 47 -10 36 -4 92 -10 125 -13 44 -5 53 -4 35 3 -20 8 -16 9 20 4 111
-13 136 -14 110 -5 l-25 9 29 1 c16 1 26 4 22 8 -3 4 -24 6 -46 5 -72 -5 -104
32 -116 130 -6 51 -4 58 27 100 20 27 51 54 74 64 22 10 60 37 85 60 25 22 70
55 100 72 111 62 135 166 80 346 -34 113 -34 149 -3 229 11 26 21 37 37 37 18
0 17 3 -12 26 -24 20 -30 29 -21 35 10 6 10 13 1 34 -7 14 -17 23 -22 20 -6
-3 -10 -2 -10 2 0 5 -9 9 -20 9 -13 0 -23 -9 -27 -24z m57 -46 c0 -12 4 -26
10 -32 6 -6 3 -24 -11 -51 -34 -69 -35 -136 -4 -233 27 -85 35 -170 21 -224
-11 -46 -42 -82 -99 -114 -28 -17 -65 -43 -82 -58 -16 -14 -54 -42 -83 -61
-28 -18 -70 -56 -91 -83 l-39 -49 -16 24 c-20 31 -25 31 -69 1 l-35 -24 -20
28 c-12 15 -46 42 -76 59 -76 44 -119 99 -114 148 3 35 0 40 -44 68 -36 22
-48 36 -48 55 0 14 -11 38 -24 54 -14 16 -22 35 -19 43 3 8 -6 26 -20 41 -32
33 -45 67 -39 100 4 22 8 24 41 18 20 -4 46 -8 59 -10 13 -2 36 -12 51 -23 32
-24 84 -34 206 -40 139 -6 168 -5 230 11 25 6 80 40 96 60 10 11 32 55 49 98
28 67 56 109 122 182 10 11 18 28 18 39 0 16 3 17 15 7 8 -7 15 -22 15 -34z
m-391 -948 c31 -98 31 -128 -1 -128 -17 1 -29 13 -45 49 -35 73 -40 111 -18
128 32 23 43 15 64 -49z m56 -128 c3 -5 1 -10 -4 -10 -6 0 -11 5 -11 10 0 6 2
10 4 10 3 0 8 -4 11 -10z"/>
</g>
</svg>
