<?xml version="1.0" standalone="no"?>
<!DOCTYPE svg PUBLIC "-//W3C//DTD SVG 20010904//EN"
 "http://www.w3.org/TR/2001/REC-SVG-20010904/DTD/svg10.dtd">
<svg version="1.0" xmlns="http://www.w3.org/2000/svg"
 width="120.000000pt" height="135.000000pt" viewBox="0 0 120.000000 135.000000"
 preserveAspectRatio="xMidYMid meet">
<metadata>
Created by potrace 1.10, written by Peter Selinger 2001-2011
</metadata>
<g transform="translate(0.000000,135.000000) scale(0.100000,-0.100000)"
fill="#000000" stroke="none">
<path d="M888 883 c-14 -4 -12 -10 17 -39 33 -33 64 -109 49 -123 -4 -3 -9 0
-12 8 -9 27 -76 93 -111 110 -104 52 -210 50 -322 -6 -88 -44 -127 -84 -202
-204 -45 -73 -56 -100 -52 -119 6 -24 6 -24 -14 -6 -14 12 -28 55 -47 135 -41
180 -44 187 -38 76 5 -93 16 -175 30 -218 6 -18 5 -18 -20 -2 -32 21 -81 97
-107 166 l-20 54 5 -46 c6 -54 37 -139 68 -189 18 -29 21 -47 19 -102 -2 -61
-1 -68 21 -80 18 -10 92 -13 328 -13 304 0 365 5 357 28 -2 7 -35 25 -73 40
-104 42 -108 53 -18 49 65 -3 83 0 130 23 105 51 144 102 144 186 0 32 6 45
25 61 14 11 25 25 25 32 0 7 9 25 20 39 11 14 20 33 20 43 0 10 14 33 32 51
17 18 29 35 27 38 -7 7 -148 10 -154 3 -3 -3 2 -19 11 -35 11 -19 15 -38 10
-56 -9 -39 -20 -33 -34 18 -9 33 -20 50 -45 65 -32 20 -38 21 -69 13z m-93
-53 c25 -8 58 -32 92 -67 34 -35 59 -53 68 -49 20 7 19 75 -1 104 -9 13 -14
26 -11 29 7 6 47 -57 47 -73 0 -6 7 -17 15 -24 26 -22 57 15 54 65 -3 37 -1
40 21 37 31 -3 33 -6 22 -29 -5 -10 -20 -40 -33 -68 -13 -27 -34 -60 -46 -72
-17 -16 -23 -34 -23 -65 -1 -66 -27 -108 -90 -146 -69 -41 -109 -52 -187 -52
-45 0 -63 -4 -63 -13 0 -22 23 -44 70 -69 l45 -23 -190 -7 c-207 -7 -373 -2
-412 13 -23 8 -24 13 -21 77 2 57 6 68 19 65 8 -3 21 3 28 11 10 12 18 13 34
5 16 -9 23 -8 34 7 7 10 13 27 13 38 0 29 111 196 157 236 20 18 61 44 90 57
90 41 162 45 268 13z"/>
</g>
</svg>
