<?xml version="1.0" standalone="no"?>
<!DOCTYPE svg PUBLIC "-//W3C//DTD SVG 20010904//EN"
 "http://www.w3.org/TR/2001/REC-SVG-20010904/DTD/svg10.dtd">
<svg version="1.0" xmlns="http://www.w3.org/2000/svg"
 width="120.000000pt" height="135.000000pt" viewBox="0 0 120.000000 135.000000"
 preserveAspectRatio="xMidYMid meet">
<metadata>
Created by potrace 1.10, written by Peter Selinger 2001-2011
</metadata>
<g transform="translate(0.000000,135.000000) scale(0.100000,-0.100000)"
fill="#000000" stroke="none">
<path d="M85 1287 c-12 -44 1 -131 29 -192 27 -60 86 -140 177 -243 44 -50 56
-69 49 -82 -17 -32 -90 -99 -129 -119 -34 -18 -42 -29 -60 -84 -12 -35 -28
-73 -36 -83 -19 -24 -19 -45 -1 -38 9 3 17 -3 21 -15 8 -25 25 -28 25 -4 0 14
2 14 20 -2 19 -18 20 -17 20 3 0 29 30 35 98 22 88 -18 91 -19 112 -59 10 -21
26 -41 35 -44 12 -5 15 -23 15 -85 0 -58 4 -83 15 -92 25 -20 89 -24 123 -6
17 9 53 16 79 16 26 1 73 10 103 21 30 11 72 24 93 28 21 5 56 23 79 41 l41
33 -5 -31 c-3 -21 0 -32 8 -32 6 0 14 -7 18 -15 4 -13 9 -13 25 -3 15 9 23 9
34 -1 21 -17 30 2 16 33 -7 14 -21 26 -33 28 -16 2 -20 9 -18 30 5 43 -16 176
-34 211 -9 18 -27 43 -39 57 -13 14 -38 62 -55 107 -37 93 -80 144 -150 176
-36 17 -65 21 -145 22 -86 0 -109 -4 -163 -26 l-63 -27 -55 50 c-71 65 -178
199 -205 257 -11 25 -24 75 -28 111 -6 56 -9 61 -16 37z m590 -427 c22 -4 50
-11 63 -14 61 -14 116 -77 156 -178 37 -93 41 -84 -52 -108 -32 -8 -48 -20
-68 -50 -31 -47 -28 -69 19 -122 58 -69 135 -68 186 2 l28 39 6 -56 c7 -64 2
-79 -19 -62 -11 9 -21 6 -49 -15 -40 -31 -193 -83 -269 -91 -28 -4 -70 -13
-93 -21 -36 -13 -47 -13 -70 -2 -26 12 -28 18 -31 82 -3 59 -1 68 13 62 22 -8
65 37 65 67 0 14 -7 30 -15 37 -18 15 -38 1 -66 -43 l-17 -29 -18 27 c-46 64
-53 69 -105 82 -66 15 -136 17 -144 3 -9 -15 -57 -13 -53 3 29 106 43 130 100
168 50 34 128 119 128 139 0 3 -7 15 -15 26 -22 30 -18 36 15 19 27 -14 33
-14 63 1 74 39 163 52 242 34z m299 -312 c3 -13 6 -47 6 -76 0 -46 -4 -58 -29
-83 -32 -32 -83 -39 -115 -16 -16 12 -16 14 3 31 12 11 21 25 21 33 0 11 -6
10 -32 -3 -29 -15 -32 -15 -44 1 -14 18 -2 69 19 82 10 7 135 47 158 52 4 0 9
-9 13 -21z m-449 -185 c-11 -17 -20 -22 -27 -15 -11 11 6 51 26 64 18 12 19
-21 1 -49z"/>
<path d="M510 725 c-8 -9 -14 -53 -16 -108 -3 -88 -2 -93 23 -119 15 -16 30
-28 35 -28 18 0 98 88 98 108 0 29 -91 162 -111 162 -9 0 -22 -7 -29 -15z m78
-71 c43 -66 53 -104 27 -104 -8 0 -24 -13 -37 -30 l-22 -30 -24 22 c-19 19
-22 29 -16 58 3 19 6 56 5 83 -3 87 10 87 67 1z"/>
<path d="M619 357 c-19 -12 -35 -31 -37 -41 -6 -28 36 -66 73 -66 63 0 88 70
39 109 -33 26 -34 26 -75 -2z m81 -47 c0 -28 -26 -43 -60 -35 -36 8 -48 28
-29 51 32 39 89 29 89 -16z"/>
</g>
</svg>
