<?xml version="1.0" standalone="no"?>
<!DOCTYPE svg PUBLIC "-//W3C//DTD SVG 20010904//EN"
 "http://www.w3.org/TR/2001/REC-SVG-20010904/DTD/svg10.dtd">
<svg version="1.0" xmlns="http://www.w3.org/2000/svg"
 width="120.000000pt" height="135.000000pt" viewBox="0 0 120.000000 135.000000"
 preserveAspectRatio="xMidYMid meet">
<metadata>
Created by potrace 1.10, written by Peter Selinger 2001-2011
</metadata>
<g transform="translate(0.000000,135.000000) scale(0.100000,-0.100000)"
fill="#000000" stroke="none">
<path d="M413 1187 c-39 -14 -56 -36 -84 -113 -12 -33 -26 -64 -31 -71 -5 -6
-38 -21 -73 -34 -56 -20 -72 -31 -125 -93 -33 -38 -60 -75 -60 -81 0 -23 31
-74 48 -79 9 -3 52 -8 94 -12 46 -4 75 -10 72 -16 -11 -17 101 -115 180 -158
70 -38 98 -70 62 -70 -21 0 -30 -18 -32 -66 l-3 -43 67 -6 c37 -3 104 -11 150
-17 62 -9 122 -8 245 1 89 7 172 14 183 17 23 4 70 67 54 72 -5 2 -5 13 0 28
5 13 6 24 1 24 -5 0 -11 9 -14 21 -3 12 -10 18 -16 14 -6 -3 -11 1 -11 9 0 9
-8 16 -19 16 -15 0 -21 12 -31 66 -16 86 -87 232 -131 268 -43 37 -79 51 -160
66 -56 10 -77 9 -127 -4 -33 -8 -76 -13 -95 -9 -19 3 -51 0 -71 -7 -43 -14
-76 -5 -76 20 0 10 17 39 39 65 33 40 39 55 44 112 9 92 -6 107 -80 80z m57
-71 c0 -47 -5 -60 -40 -107 -44 -59 -49 -87 -22 -112 17 -15 30 -16 133 -5
142 15 265 14 311 -1 80 -26 153 -135 194 -288 17 -65 28 -88 53 -109 25 -21
31 -33 31 -65 0 -69 -14 -73 -288 -72 -131 0 -252 2 -269 5 -18 2 -44 5 -58 6
-21 2 -25 7 -25 32 0 19 7 33 21 40 14 8 19 19 17 38 -2 22 -18 36 -80 72 -76
46 -153 110 -174 146 -8 14 -34 23 -98 34 -117 20 -135 50 -70 118 20 20 34
30 31 20 -8 -23 30 -54 61 -50 71 9 87 102 18 102 -27 0 -9 15 35 29 49 16 72
44 99 119 24 67 57 102 96 102 22 0 24 -4 24 -54z m-234 -231 c9 -23 -15 -45
-47 -45 -22 0 -29 5 -29 20 0 34 65 56 76 25z"/>
</g>
</svg>
