<?xml version="1.0" standalone="no"?>
<!DOCTYPE svg PUBLIC "-//W3C//DTD SVG 20010904//EN"
 "http://www.w3.org/TR/2001/REC-SVG-20010904/DTD/svg10.dtd">
<svg version="1.0" xmlns="http://www.w3.org/2000/svg"
 width="120.000000pt" height="135.000000pt" viewBox="0 0 120.000000 135.000000"
 preserveAspectRatio="xMidYMid meet">
<metadata>
Created by potrace 1.10, written by Peter Selinger 2001-2011
</metadata>
<g transform="translate(0.000000,135.000000) scale(0.100000,-0.100000)"
fill="#000000" stroke="none">
<path d="M867 1037 c-3 -8 -22 -22 -44 -31 -21 -10 -60 -29 -86 -43 -57 -29
-98 -32 -187 -10 -84 21 -184 21 -243 1 -90 -31 -247 -150 -247 -188 0 -7 -9
-25 -21 -40 -12 -15 -23 -45 -25 -67 -2 -22 -6 -45 -9 -50 -4 -5 -2 -9 3 -9
12 0 24 -75 23 -147 -1 -70 31 -98 121 -107 315 -31 978 -30 1010 2 4 4 -113
7 -260 7 -462 0 -762 11 -805 28 -37 16 -37 16 -37 74 0 33 -4 63 -9 69 -6 5
-12 38 -15 73 -4 56 -2 70 24 117 16 30 39 67 52 82 28 36 139 110 192 128 51
18 197 18 269 -1 32 -8 70 -15 85 -15 27 0 114 38 120 53 2 4 11 7 21 7 9 0
33 11 53 25 35 24 36 24 53 5 10 -11 33 -22 52 -26 34 -6 34 -6 17 -32 -16
-25 -16 -26 9 -48 43 -37 101 -7 79 40 l-11 24 61 -24 c34 -13 63 -26 65 -28
3 -2 -2 -14 -9 -25 -16 -27 -81 -57 -159 -75 -77 -18 -101 -35 -129 -88 -13
-24 -29 -54 -36 -68 -23 -42 -17 -129 11 -177 21 -38 22 -43 7 -43 -10 0 -42
25 -72 56 -71 72 -84 77 -164 57 -85 -21 -127 -55 -129 -106 l-1 -37 -70 0
c-50 0 -66 -3 -56 -10 24 -16 225 -13 239 4 15 17 -5 26 -60 26 -43 0 -43 -1
-30 33 11 30 81 64 148 73 l49 6 53 -61 c29 -34 60 -61 69 -61 10 0 30 -7 46
-15 29 -16 106 -21 106 -7 0 4 -8 12 -18 17 -129 71 -152 147 -86 276 40 77
46 82 122 98 127 27 209 90 182 141 -6 11 -17 20 -25 20 -8 0 -38 11 -67 25
-29 13 -79 27 -110 30 -45 5 -60 11 -72 31 -18 26 -41 32 -49 11z m168 -100
c23 -17 12 -37 -21 -37 -17 0 -24 6 -24 18 0 33 16 40 45 19z"/>
</g>
</svg>
