<?xml version="1.0" standalone="no"?>
<!DOCTYPE svg PUBLIC "-//W3C//DTD SVG 20010904//EN"
 "http://www.w3.org/TR/2001/REC-SVG-20010904/DTD/svg10.dtd">
<svg version="1.0" xmlns="http://www.w3.org/2000/svg"
 width="120.000000pt" height="135.000000pt" viewBox="0 0 120.000000 135.000000"
 preserveAspectRatio="xMidYMid meet">
<metadata>
Created by potrace 1.10, written by Peter Selinger 2001-2011
</metadata>
<g transform="translate(0.000000,135.000000) scale(0.100000,-0.100000)"
fill="#000000" stroke="none">
<path d="M640 1301 c-116 -38 -178 -131 -167 -250 15 -170 130 -283 289 -285
58 -1 71 3 109 29 24 17 57 53 74 80 26 42 30 58 30 119 0 58 -5 81 -29 128
-38 76 -78 123 -131 154 -47 27 -131 40 -175 25z m124 -53 c49 -15 123 -85
150 -143 48 -100 2 -242 -91 -281 -116 -49 -260 30 -299 164 -34 116 11 219
111 256 50 18 77 19 129 4z"/>
<path d="M636 1124 c-9 -8 -16 -22 -16 -29 0 -14 26 -45 39 -45 27 0 41 56 19
78 -16 16 -23 15 -42 -4z m38 -20 c7 -17 0 -34 -14 -34 -11 0 -21 30 -14 41 8
14 21 11 28 -7z"/>
<path d="M145 896 c-57 -26 -108 -79 -123 -128 -15 -50 -23 -100 -14 -94 4 2
6 -11 4 -29 -7 -58 46 -155 110 -203 90 -68 155 -93 235 -90 l68 3 12 -74 c6
-41 20 -86 30 -100 43 -58 160 -88 225 -57 101 48 104 225 5 297 -22 16 -50
29 -63 29 l-23 0 26 49 c50 97 29 180 -70 289 -107 115 -301 165 -422 108z
m183 -31 c118 -28 216 -94 274 -184 15 -25 28 -57 28 -71 0 -14 -18 -56 -40
-92 -22 -37 -37 -73 -34 -81 2 -8 33 -25 67 -38 72 -28 107 -70 107 -130 0
-100 -76 -144 -178 -103 -48 19 -62 46 -71 141 -4 40 -12 78 -19 85 -7 7 -47
12 -100 13 -74 0 -97 5 -143 28 -103 50 -163 132 -176 237 -5 41 -1 59 21 104
22 46 35 59 78 80 59 30 97 32 186 11z m278 -420 c17 -16 14 -18 -10 -9 -9 3
-16 10 -16 15 0 13 9 11 26 -6z m-156 -75 c0 -5 -2 -10 -4 -10 -3 0 -8 5 -11
10 -3 6 -1 10 4 10 6 0 11 -4 11 -10z"/>
<path d="M261 656 c-22 -26 10 -63 43 -50 35 13 24 64 -14 64 -10 0 -23 -6
-29 -14z m47 -18 c-3 -7 -11 -13 -18 -13 -7 0 -15 6 -17 13 -3 7 4 12 17 12
13 0 20 -5 18 -12z"/>
<path d="M216 569 c-17 -25 -12 -46 15 -54 22 -7 49 10 49 30 0 12 -31 45 -43
45 -3 0 -13 -10 -21 -21z m39 -17 c0 -18 -20 -15 -23 4 -3 10 1 15 10 12 7 -3
13 -10 13 -16z"/>
<path d="M315 536 c-11 -8 -16 -19 -12 -30 9 -23 34 -31 52 -16 20 16 19 46
-1 54 -20 8 -17 8 -39 -8z m35 -21 c0 -8 -7 -15 -15 -15 -8 0 -15 7 -15 15 0
8 7 15 15 15 8 0 15 -7 15 -15z"/>
<path d="M923 740 c-24 -10 -62 -39 -86 -64 -82 -84 -105 -168 -68 -252 28
-62 47 -82 96 -105 89 -41 187 -14 253 70 56 71 75 126 70 201 -4 54 -8 65
-44 101 -67 71 -139 87 -221 49z m136 -45 c16 -8 40 -28 55 -45 49 -59 26
-173 -52 -253 -49 -50 -97 -63 -166 -43 -43 13 -56 22 -74 55 -41 73 -24 168
43 235 62 62 136 81 194 51z"/>
<path d="M918 613 c-23 -6 -33 -40 -17 -59 15 -19 49 -14 63 8 8 14 6 22 -9
36 -11 10 -28 17 -37 15z m30 -36 c2 -10 -3 -17 -12 -17 -18 0 -29 16 -21 31
9 14 29 6 33 -14z"/>
</g>
</svg>
