<?xml version="1.0" standalone="no"?>
<!DOCTYPE svg PUBLIC "-//W3C//DTD SVG 20010904//EN"
 "http://www.w3.org/TR/2001/REC-SVG-20010904/DTD/svg10.dtd">
<svg version="1.0" xmlns="http://www.w3.org/2000/svg"
 width="120.000000pt" height="135.000000pt" viewBox="0 0 120.000000 135.000000"
 preserveAspectRatio="xMidYMid meet">
<metadata>
Created by potrace 1.10, written by Peter Selinger 2001-2011
</metadata>
<g transform="translate(0.000000,135.000000) scale(0.100000,-0.100000)"
fill="#000000" stroke="none">
<path d="M519 1069 c-26 -4 -56 -12 -67 -18 -11 -6 -29 -11 -39 -11 -30 0
-124 -65 -193 -132 l-65 -64 -48 7 c-27 4 -60 15 -73 24 -61 40 -38 -23 25
-69 27 -20 54 -49 61 -66 16 -38 5 -148 -17 -172 -9 -10 -12 -25 -8 -38 12
-37 50 -52 131 -54 70 -1 75 -2 70 -21 -3 -11 -6 -28 -6 -37 0 -10 -16 -35
-35 -57 -29 -32 -33 -40 -21 -50 22 -18 96 8 96 34 0 11 16 56 36 101 32 73
40 83 80 102 25 12 55 22 68 22 22 0 26 -7 39 -65 16 -69 11 -117 -16 -158
-14 -21 -13 -24 4 -36 31 -19 79 14 79 54 0 26 12 73 46 183 4 14 24 17 24 3
0 -5 9 -7 20 -4 11 3 20 1 20 -5 0 -7 10 -8 30 -2 19 5 32 5 36 -2 4 -6 10 -5
15 3 5 8 26 14 48 15 37 0 42 -3 52 -33 14 -42 6 -73 -26 -111 -26 -32 -23
-43 11 -37 10 2 23 4 27 4 17 2 68 136 63 164 -7 36 3 34 62 -13 53 -41 57
-48 67 -121 3 -26 12 -55 20 -65 13 -18 14 -18 24 10 7 18 9 53 4 95 -8 72 -8
103 3 201 4 42 3 61 -3 55 -12 -12 -33 -128 -33 -179 l0 -38 -57 51 c-31 28
-65 51 -75 51 -21 0 -42 -35 -35 -60 4 -17 -8 -50 -15 -40 -2 3 -11 22 -21 43
-22 48 -35 52 -117 41 -41 -6 -76 -6 -93 0 -46 16 -69 -5 -94 -89 -13 -40 -23
-84 -23 -97 0 -23 -16 -48 -31 -48 -4 0 0 18 8 40 14 35 14 50 4 110 -20 111
-52 126 -158 72 -33 -17 -47 -34 -71 -84 -28 -58 -30 -60 -31 -32 -1 37 -22
58 -50 49 -11 -3 -36 -3 -54 0 -29 6 -36 12 -41 37 -3 18 -14 32 -25 35 -16 4
-18 9 -10 30 5 13 9 50 9 81 0 45 -6 66 -25 95 -14 20 -30 37 -36 37 -6 0 -8
4 -4 9 3 5 21 7 40 4 32 -5 40 0 107 64 129 123 236 168 383 160 184 -9 238
-22 353 -80 134 -68 202 -139 202 -214 0 -15 7 -46 15 -68 l15 -40 -6 65 c-4
36 -6 89 -6 119 1 47 -1 53 -17 48 -12 -3 -36 9 -66 34 -76 63 -216 125 -320
143 -111 19 -206 25 -266 15z m652 -242 c-8 -8 -11 -7 -11 4 0 20 13 34 18 19
3 -7 -1 -17 -7 -23z m-1055 -294 c-10 -10 -19 5 -10 18 6 11 8 11 12 0 2 -7 1
-15 -2 -18z m44 -9 c0 -16 -16 -19 -25 -4 -8 13 4 32 16 25 5 -4 9 -13 9 -21z
m141 -177 c-17 -17 -24 -1 -9 22 11 18 14 19 16 5 2 -9 -1 -21 -7 -27z"/>
<path d="M239 699 c-16 -16 -18 -23 -8 -35 25 -31 78 1 59 37 -14 24 -25 24
-51 -2z m27 -25 c-11 -7 -22 -11 -25 -8 -3 3 3 12 13 20 11 7 22 11 25 8 3 -3
-3 -12 -13 -20z"/>
</g>
</svg>
