<?xml version="1.0" standalone="no"?>
<!DOCTYPE svg PUBLIC "-//W3C//DTD SVG 20010904//EN"
 "http://www.w3.org/TR/2001/REC-SVG-20010904/DTD/svg10.dtd">
<svg version="1.0" xmlns="http://www.w3.org/2000/svg"
 width="120.000000pt" height="135.000000pt" viewBox="0 0 120.000000 135.000000"
 preserveAspectRatio="xMidYMid meet">
<metadata>
Created by potrace 1.10, written by Peter Selinger 2001-2011
</metadata>
<g transform="translate(0.000000,135.000000) scale(0.100000,-0.100000)"
fill="#000000" stroke="none">
<path d="M878 1253 c-30 -33 -48 -82 -48 -130 0 -41 29 -56 84 -43 33 7 39 5
53 -16 14 -23 14 -26 -2 -44 -19 -21 -130 -80 -151 -80 -7 0 -15 13 -19 29
-10 48 -27 56 -91 42 -38 -9 -68 -24 -94 -47 -33 -30 -44 -34 -91 -34 -245 -2
-411 -95 -444 -250 -11 -50 -7 -137 7 -159 18 -29 78 -59 183 -92 147 -46 212
-80 300 -159 44 -40 96 -80 115 -90 50 -25 146 -43 193 -36 94 15 228 109 268
189 15 28 22 67 26 131 6 103 -4 155 -43 211 -22 34 -24 39 -10 47 38 21 57
98 36 139 -9 16 -22 19 -77 19 -62 0 -65 1 -51 18 27 30 60 103 54 119 -4 8 3
35 14 60 30 68 24 82 -18 43 -21 -20 -23 -20 -48 -3 -16 10 -40 47 -60 90 -19
40 -40 73 -47 73 -7 0 -25 -12 -39 -27z m70 -66 c28 -61 70 -107 98 -107 23 0
6 -89 -27 -143 -16 -27 -29 -52 -29 -57 0 -16 34 -28 83 -28 26 -1 51 -3 55
-6 16 -10 0 -75 -24 -97 -31 -29 -30 -37 8 -99 30 -48 31 -56 32 -153 1 -87
-3 -109 -22 -149 -28 -57 -99 -119 -177 -154 -50 -23 -67 -26 -130 -22 -92 6
-138 29 -240 119 -44 39 -93 78 -110 87 -50 25 -199 82 -217 82 -33 0 -126 48
-143 74 -25 38 -17 138 16 202 51 99 156 150 344 166 111 10 122 13 154 40 39
34 71 48 111 48 21 0 33 -8 49 -35 13 -23 28 -35 42 -35 30 0 136 59 160 88
25 32 24 44 -5 74 -20 23 -29 25 -69 21 -38 -5 -48 -2 -53 11 -13 34 30 136
57 136 5 0 22 -28 37 -63z"/>
<path d="M364 645 c-15 -23 -15 -27 0 -50 28 -43 86 -28 86 21 0 23 -33 54
-57 54 -7 0 -20 -11 -29 -25z m66 -31 c0 -23 -31 -30 -46 -9 -10 13 -11 22 -3
31 14 17 49 1 49 -22z"/>
<path d="M612 528 c-7 -7 -12 -24 -12 -38 0 -53 61 -71 82 -25 10 22 8 29 -12
50 -26 28 -40 31 -58 13z m56 -46 c-2 -9 -11 -18 -21 -20 -19 -4 -32 20 -23
43 8 22 48 0 44 -23z"/>
</g>
</svg>
