<?xml version="1.0" standalone="no"?>
<!DOCTYPE svg PUBLIC "-//W3C//DTD SVG 20010904//EN"
 "http://www.w3.org/TR/2001/REC-SVG-20010904/DTD/svg10.dtd">
<svg version="1.0" xmlns="http://www.w3.org/2000/svg"
 width="120.000000pt" height="135.000000pt" viewBox="0 0 120.000000 135.000000"
 preserveAspectRatio="xMidYMid meet">
<metadata>
Created by potrace 1.10, written by Peter Selinger 2001-2011
</metadata>
<g transform="translate(0.000000,135.000000) scale(0.100000,-0.100000)"
fill="#000000" stroke="none">
<path d="M716 1280 c-29 -35 -31 -48 -14 -85 11 -24 9 -29 -12 -45 -29 -22
-46 -13 -55 28 -3 15 -16 32 -28 37 -14 7 -22 18 -21 34 1 17 -7 27 -33 37
-28 12 -38 12 -68 0 -30 -13 -35 -19 -30 -39 4 -15 1 -28 -9 -36 -9 -8 -16
-10 -16 -5 0 5 -13 -13 -28 -40 -15 -27 -32 -51 -38 -53 -6 -2 -23 6 -37 17
-25 20 -27 25 -21 74 4 32 2 61 -4 72 -10 17 -11 17 -12 -6 0 -14 -7 -36 -15
-50 -8 -14 -14 -37 -15 -52 0 -42 39 -136 59 -143 17 -5 17 -9 -7 -73 -18 -49
-26 -94 -29 -167 -4 -91 -3 -104 20 -147 l24 -47 -38 -26 c-21 -14 -46 -39
-55 -57 -23 -44 -14 -133 20 -194 14 -26 26 -48 26 -49 0 -11 -62 -14 -86 -4
-79 31 -164 33 -164 3 0 -8 -8 -14 -17 -14 -17 -1 -17 -1 0 -14 12 -9 14 -15
6 -18 -23 -8 158 -58 231 -64 64 -6 82 -4 115 14 75 38 93 80 69 160 l-13 43
34 15 c41 17 90 14 179 -12 55 -15 66 -22 64 -39 -5 -69 3 -107 28 -132 24
-24 31 -25 97 -21 82 5 150 32 212 82 23 19 57 43 75 53 38 22 50 43 24 43
-16 0 -16 1 2 16 18 14 18 15 -6 8 -14 -4 -31 -9 -37 -11 -24 -9 -13 6 15 21
l27 15 -32 1 c-45 0 -78 -14 -146 -65 -66 -51 -103 -59 -94 -22 18 73 19 145
2 181 -18 38 -62 76 -89 76 -20 0 -20 -4 5 92 19 78 20 85 4 152 -8 39 -31
102 -49 140 l-34 70 29 27 c26 24 29 34 29 85 0 40 -5 63 -17 76 -14 16 -15
24 -5 50 16 43 10 45 -22 8z m-158 -35 c2 -11 15 -32 29 -47 14 -15 31 -37 37
-49 20 -40 42 -46 76 -21 l30 23 0 -33 c0 -21 -9 -41 -26 -59 l-26 -27 21 -40
c34 -66 71 -188 71 -232 0 -22 -7 -71 -17 -107 -18 -74 -23 -64 52 -116 47
-33 56 -67 44 -152 -9 -59 -9 -78 1 -90 17 -20 49 -19 81 3 129 86 128 85 158
61 13 -11 19 -19 14 -19 -5 0 -38 -22 -73 -49 -107 -83 -259 -116 -297 -65 -7
10 -13 43 -13 75 0 67 -5 72 -90 99 -74 24 -150 26 -189 5 -37 -19 -43 -37
-29 -89 15 -58 5 -90 -39 -118 -31 -19 -50 -23 -104 -21 -92 2 -219 38 -219
62 0 24 72 27 123 6 49 -20 90 -19 111 4 17 19 17 22 -8 73 -53 109 -44 177
31 228 38 26 39 37 8 120 -22 58 -16 158 15 264 15 50 20 83 14 91 -29 39 -43
63 -49 84 l-7 23 30 -22 c38 -28 61 -23 89 20 13 19 34 47 48 63 14 15 25 36
25 46 0 26 10 32 45 29 21 -2 31 -9 33 -23z"/>
</g>
</svg>
